<svg width="652" height="222" viewBox="0 0 652 222" fill="none" xmlns="http://www.w3.org/2000/svg">
<path d="M195.78 146.68V215.58C195.78 216.679 195.479 217.756 194.909 218.695C194.338 219.634 193.521 220.399 192.546 220.905C191.571 221.412 190.476 221.641 189.38 221.568C188.284 221.494 187.229 221.122 186.33 220.49L146.52 192.49V177.54L131.1 187.07L195.78 146.68Z" fill="#04A6D0"/>
<path d="M-1.52588e-05 89.44L49.24 121.06L49.21 177.23L-1.52588e-05 146.51V89.44Z" fill="#203F77"/>
<path d="M195.79 88.68V146.68L132.16 186.38L131.16 187.03L108.52 201.03C105.351 202.999 101.695 204.042 97.965 204.042C94.2346 204.042 90.5786 202.999 87.41 201.03L60.26 184.03V128.03L85.7 144.37C88.8988 146.422 92.6162 147.521 96.4169 147.537C100.218 147.553 103.944 146.486 107.16 144.46L195.79 88.68Z" fill="#04A6D0"/>
<path d="M49.24 113.43V121.06L49.21 177.23V179.39L-1.52588e-05 146.71V85.51L49.24 113.43Z" fill="#203F77"/>
<path d="M195.79 7.00996V75.77L146.27 106.89V84.14L108.47 107.68C105.298 109.655 101.636 110.701 97.9 110.701C94.1636 110.701 90.5019 109.655 87.33 107.68L49.27 84V113.4V121.03V177.2V179.36L0.0100109 146.68V7.08998C0.00936348 6.01362 0.298258 4.95692 0.846437 4.03062C1.39462 3.10432 2.18184 2.34253 3.12567 1.82511C4.0695 1.3077 5.13519 1.05369 6.21094 1.08973C7.28669 1.12578 8.33291 1.45054 9.23999 2.02998L60.01 34.39C60.0361 34.3822 60.0639 34.3822 60.09 34.39L60.8 34.83L86.53 51.23C89.723 53.2653 93.4283 54.3524 97.2148 54.3648C101.001 54.3772 104.714 53.3144 107.92 51.3L186.59 1.86997C187.502 1.29468 188.553 0.975945 189.631 0.947306C190.709 0.918668 191.775 1.18117 192.717 1.70722C193.658 2.23328 194.441 3.00342 194.982 3.93659C195.522 4.86977 195.802 5.93146 195.79 7.00996Z" fill="#203F77"/>
<path d="M2.19796e-05 159.94L49.47 191.68L9.39999 220.5C8.49518 221.122 7.43695 221.484 6.34054 221.547C5.24413 221.609 4.15164 221.369 3.18209 220.854C2.21254 220.338 1.40309 219.566 0.842002 218.622C0.280911 217.678 -0.0103193 216.598 2.19796e-05 215.5V159.94Z" fill="#EC6400"/>
<path opacity="0.6" d="M146.52 83.58V91.68L195.78 60.87C195.779 60.0653 195.563 59.2756 195.154 58.5826C194.745 57.8896 194.158 57.3186 193.454 56.9289C192.75 56.5392 191.955 56.3449 191.151 56.3662C190.346 56.3875 189.562 56.6235 188.88 57.0499L146.52 83.58Z" fill="#203F77"/>
<path opacity="0.6" d="M146.52 177.54V185.68L195.78 154.87C195.779 154.065 195.563 153.276 195.154 152.583C194.745 151.89 194.158 151.319 193.454 150.929C192.75 150.539 191.955 150.345 191.151 150.366C190.346 150.387 189.562 150.624 188.88 151.05L146.52 177.54Z" fill="#203F77"/>
<path opacity="0.6" d="M49.29 84.01V41.01C49.2914 39.6698 49.6548 38.3549 50.3418 37.2042C51.0288 36.0535 52.0139 35.1098 53.1929 34.4726C54.3719 33.8355 55.7011 33.5286 57.0401 33.5845C58.3791 33.6404 59.6781 34.0568 60.8 34.7899V91.12L49.29 84.01Z" fill="#203F77"/>
<path opacity="0.6" d="M146.25 83.58V91.68L195.51 60.87C195.509 60.0653 195.293 59.2756 194.884 58.5826C194.475 57.8896 193.888 57.3186 193.184 56.9289C192.48 56.5392 191.685 56.3449 190.881 56.3662C190.076 56.3875 189.292 56.6235 188.61 57.0499L146.25 83.58Z" fill="url(#paint0_linear_1_84)"/>
<path opacity="0.6" d="M146.25 177.54V185.68L195.51 154.87C195.509 154.065 195.293 153.276 194.884 152.583C194.475 151.89 193.888 151.319 193.184 150.929C192.48 150.539 191.685 150.345 190.881 150.366C190.076 150.387 189.292 150.624 188.61 151.05L146.25 177.54Z" fill="url(#paint1_linear_1_84)"/>
<path opacity="0.6" d="M49.02 84.01V41.01C49.0193 39.6701 49.3809 38.3549 50.0667 37.2037C50.7524 36.0525 51.7366 35.1082 52.9152 34.4707C54.0938 33.8333 55.4228 33.5264 56.7616 33.5826C58.1003 33.6388 59.3989 34.056 60.52 34.79V91.12L49.02 84.01Z" fill="url(#paint2_linear_1_84)"/>
<path d="M310.26 71.98L288.77 106.55L267.28 71.98H247.86V153.73H265.5V100.73L288.27 135.3H288.74L311.74 100.38V153.75H329.6V71.98H310.26Z" fill="#203F77"/>
<path d="M370.26 89.32C361.889 89.1266 353.584 90.8363 345.97 94.32L350.41 107.87C355.898 105.639 361.766 104.488 367.69 104.48C376.57 104.48 381.12 108.57 381.12 115.93V116.93C376.21 115.183 371.031 114.313 365.82 114.36C350.99 114.36 340.6 120.67 340.6 134.36V134.6C340.6 146.98 350.29 153.75 362.09 153.75C370.73 153.75 376.68 150.6 381.01 145.81V152.58H398.17V116.3C398.17 99.37 389.65 89.32 370.26 89.32ZM381.36 130.55C381.36 136.97 375.75 141.55 367.46 141.55C361.74 141.55 357.76 138.75 357.76 133.96V133.72C357.76 128.12 362.44 125.08 370.03 125.08C373.93 125.045 377.793 125.843 381.36 127.42V130.55Z" fill="#203F77"/>
<path d="M483.57 89.99C475.04 89.99 468.5 93.49 463.01 99.91C459.74 93.61 453.55 89.99 445.38 89.99C436.38 89.99 431.01 94.77 426.92 99.99V91.11H409.17V153.71H426.92V118.83C426.92 110.42 431.01 106.1 437.67 106.1C444.33 106.1 448.06 110.42 448.06 118.83V153.75H465.81V118.83C465.81 110.42 469.9 106.1 476.56 106.1C483.22 106.1 486.95 110.42 486.95 118.83V153.75H504.71V112.99C504.71 97.93 496.76 89.99 483.57 89.99Z" fill="#203F77"/>
<path d="M549.71 88.59C530.2 88.59 515.71 103.18 515.71 121.17V121.4C515.71 139.4 530.08 153.75 549.46 153.75C568.84 153.75 583.46 139.16 583.46 121.17V120.94C583.46 102.95 569.09 88.59 549.71 88.59ZM565.9 121.4C565.9 130.63 559.83 138.46 549.67 138.46C539.86 138.46 533.2 130.4 533.2 121.17V120.94C533.2 111.71 539.27 103.88 549.43 103.88C559.24 103.88 565.9 111.94 565.9 121.17V121.4Z" fill="#203F77"/>
<path d="M630.55 89.99C621.55 89.99 616.3 94.77 612.22 99.99V68.5H594.46V153.75H612.22V118.83C612.22 110.42 616.54 106.1 623.31 106.1C630.08 106.1 634.06 110.42 634.06 118.83V153.75H651.81V113.23C651.81 98.86 643.98 89.99 630.55 89.99Z" fill="#203F77"/>
<defs>
<linearGradient id="paint0_linear_1_84" x1="174.66" y1="80.88" x2="167.51" y2="70.8399" gradientUnits="userSpaceOnUse">
<stop offset="0.53" stop-opacity="0"/>
<stop offset="1"/>
</linearGradient>
<linearGradient id="paint1_linear_1_84" x1="174.66" y1="174.84" x2="167.51" y2="164.79" gradientUnits="userSpaceOnUse">
<stop offset="0.53" stop-opacity="0"/>
<stop offset="1"/>
</linearGradient>
<linearGradient id="paint2_linear_1_84" x1="59.9" y1="62.39" x2="50.96" y2="62.39" gradientUnits="userSpaceOnUse">
<stop offset="0.25" stop-opacity="0"/>
<stop offset="1"/>
</linearGradient>
</defs>
</svg>
