<svg width="405" height="360" viewBox="0 0 405 360" fill="none" xmlns="http://www.w3.org/2000/svg">
<path d="M300.28 146.68V215.58C300.28 216.679 299.979 217.756 299.409 218.695C298.838 219.634 298.021 220.399 297.046 220.905C296.071 221.412 294.976 221.641 293.88 221.568C292.784 221.494 291.729 221.122 290.83 220.49L251.02 192.49V177.54L235.6 187.07L300.28 146.68Z" fill="#04A6D0"/>
<path d="M104.5 89.44L153.74 121.06L153.71 177.23L104.5 146.51V89.44Z" fill="#203F77"/>
<path d="M300.29 88.68V146.68L236.66 186.38L235.66 187.03L213.02 201.03C209.851 202.999 206.195 204.042 202.465 204.042C198.735 204.042 195.079 202.999 191.91 201.03L164.76 184.03V128.03L190.2 144.37C193.399 146.422 197.116 147.521 200.917 147.537C204.718 147.553 208.444 146.486 211.66 144.46L300.29 88.68Z" fill="#04A6D0"/>
<path d="M153.74 113.43V121.06L153.71 177.23V179.39L104.5 146.71V85.5099L153.74 113.43Z" fill="#203F77"/>
<path d="M300.29 7.00996V75.77L250.77 106.89V84.14L212.97 107.68C209.798 109.655 206.136 110.701 202.4 110.701C198.664 110.701 195.002 109.655 191.83 107.68L153.77 84V113.4V121.03V177.2V179.36L104.51 146.68V7.08998C104.509 6.01362 104.798 4.95692 105.346 4.03062C105.895 3.10432 106.682 2.34253 107.626 1.82511C108.57 1.3077 109.635 1.05369 110.711 1.08973C111.787 1.12578 112.833 1.45054 113.74 2.02998L164.51 34.39C164.536 34.3822 164.564 34.3822 164.59 34.39L165.3 34.83L191.03 51.23C194.223 53.2653 197.928 54.3524 201.715 54.3648C205.501 54.3772 209.214 53.3144 212.42 51.3L291.09 1.86997C292.002 1.29468 293.053 0.975945 294.131 0.947306C295.209 0.918668 296.275 1.18117 297.217 1.70722C298.158 2.23328 298.941 3.00342 299.482 3.93659C300.022 4.86977 300.302 5.93146 300.29 7.00996Z" fill="#203F77"/>
<path d="M104.5 159.94L153.97 191.68L113.9 220.5C112.995 221.122 111.937 221.484 110.841 221.547C109.744 221.609 108.652 221.369 107.682 220.854C106.713 220.338 105.903 219.566 105.342 218.622C104.781 217.678 104.49 216.598 104.5 215.5V159.94Z" fill="#EC6400"/>
<path opacity="0.6" d="M251.02 83.58V91.68L300.28 60.87C300.279 60.0653 300.063 59.2756 299.654 58.5826C299.245 57.8896 298.658 57.3186 297.954 56.9289C297.25 56.5392 296.455 56.3449 295.651 56.3662C294.846 56.3875 294.062 56.6235 293.38 57.0499L251.02 83.58Z" fill="#203F77"/>
<path opacity="0.6" d="M251.02 177.54V185.68L300.28 154.87C300.279 154.065 300.063 153.276 299.654 152.583C299.245 151.89 298.658 151.319 297.954 150.929C297.25 150.539 296.455 150.345 295.651 150.366C294.846 150.387 294.062 150.624 293.38 151.05L251.02 177.54Z" fill="#203F77"/>
<path opacity="0.6" d="M153.79 84.01V41.01C153.791 39.6698 154.155 38.3549 154.842 37.2042C155.529 36.0535 156.514 35.1098 157.693 34.4726C158.872 33.8355 160.201 33.5286 161.54 33.5845C162.879 33.6404 164.178 34.0568 165.3 34.7899V91.12L153.79 84.01Z" fill="#203F77"/>
<path opacity="0.6" d="M250.75 83.58V91.68L300.01 60.87C300.009 60.0653 299.793 59.2756 299.384 58.5826C298.975 57.8896 298.388 57.3186 297.684 56.9289C296.98 56.5392 296.185 56.3449 295.381 56.3662C294.576 56.3875 293.792 56.6235 293.11 57.0499L250.75 83.58Z" fill="url(#paint0_linear_1_109)"/>
<path opacity="0.6" d="M250.75 177.54V185.68L300.01 154.87C300.009 154.065 299.793 153.276 299.384 152.583C298.975 151.89 298.388 151.319 297.684 150.929C296.98 150.539 296.185 150.345 295.381 150.366C294.576 150.387 293.792 150.624 293.11 151.05L250.75 177.54Z" fill="url(#paint1_linear_1_109)"/>
<path opacity="0.6" d="M153.52 84.01V41.01C153.519 39.6701 153.881 38.3549 154.567 37.2037C155.252 36.0525 156.237 35.1082 157.415 34.4707C158.594 33.8333 159.923 33.5264 161.262 33.5826C162.6 33.6388 163.899 34.056 165.02 34.79V91.12L153.52 84.01Z" fill="url(#paint2_linear_1_109)"/>
<path d="M63.26 277.48L41.77 312.05L20.28 277.48H0.859985V359.23H18.5V306.23L41.27 340.8H41.74L64.74 305.88V359.25H82.6V277.48H63.26Z" fill="#203F77"/>
<path d="M123.26 294.82C114.889 294.627 106.584 296.336 98.97 299.82L103.41 313.37C108.898 311.139 114.766 309.988 120.69 309.98C129.57 309.98 134.12 314.07 134.12 321.43V322.43C129.21 320.683 124.031 319.813 118.82 319.86C103.99 319.86 93.6 326.17 93.6 339.86V340.1C93.6 352.48 103.29 359.25 115.09 359.25C123.73 359.25 129.68 356.1 134.01 351.31V358.08H151.17V321.8C151.17 304.87 142.65 294.82 123.26 294.82ZM134.36 336.05C134.36 342.47 128.75 347.05 120.46 347.05C114.74 347.05 110.76 344.25 110.76 339.46V339.22C110.76 333.62 115.44 330.58 123.03 330.58C126.93 330.545 130.793 331.343 134.36 332.92V336.05Z" fill="#203F77"/>
<path d="M236.57 295.49C228.04 295.49 221.5 298.99 216.01 305.41C212.74 299.11 206.55 295.49 198.38 295.49C189.38 295.49 184.01 300.27 179.92 305.49V296.61H162.17V359.21H179.92V324.33C179.92 315.92 184.01 311.6 190.67 311.6C197.33 311.6 201.06 315.92 201.06 324.33V359.25H218.81V324.33C218.81 315.92 222.9 311.6 229.56 311.6C236.22 311.6 239.95 315.92 239.95 324.33V359.25H257.71V318.49C257.71 303.43 249.76 295.49 236.57 295.49Z" fill="#203F77"/>
<path d="M302.71 294.09C283.2 294.09 268.71 308.68 268.71 326.67V326.9C268.71 344.9 283.08 359.25 302.46 359.25C321.84 359.25 336.46 344.66 336.46 326.67V326.44C336.46 308.45 322.09 294.09 302.71 294.09ZM318.9 326.9C318.9 336.13 312.83 343.96 302.67 343.96C292.86 343.96 286.2 335.9 286.2 326.67V326.44C286.2 317.21 292.27 309.38 302.43 309.38C312.24 309.38 318.9 317.44 318.9 326.67V326.9Z" fill="#203F77"/>
<path d="M383.55 295.49C374.55 295.49 369.3 300.27 365.22 305.49V274H347.46V359.25H365.22V324.33C365.22 315.92 369.54 311.6 376.31 311.6C383.08 311.6 387.06 315.92 387.06 324.33V359.25H404.81V318.73C404.81 304.36 396.98 295.49 383.55 295.49Z" fill="#203F77"/>
<defs>
<linearGradient id="paint0_linear_1_109" x1="279.16" y1="80.88" x2="272.01" y2="70.8399" gradientUnits="userSpaceOnUse">
<stop offset="0.53" stop-opacity="0"/>
<stop offset="1"/>
</linearGradient>
<linearGradient id="paint1_linear_1_109" x1="279.16" y1="174.84" x2="272.01" y2="164.79" gradientUnits="userSpaceOnUse">
<stop offset="0.53" stop-opacity="0"/>
<stop offset="1"/>
</linearGradient>
<linearGradient id="paint2_linear_1_109" x1="164.4" y1="62.39" x2="155.46" y2="62.39" gradientUnits="userSpaceOnUse">
<stop offset="0.25" stop-opacity="0"/>
<stop offset="1"/>
</linearGradient>
</defs>
</svg>
